.
 
http://www.scenetime.com    -   SceneTime [ We been having it ] !!!


How come you press harder on a remote control when you know the battery is dead? so you better seed to get speed ;)

        Seed back for speed


...................................NFO:.................................................[img]http://leetleech.org/images/88931574866131871736.jpg[/img]




[color=blue]#######################################################################[/color]
[color=#99FF00][b]General:[/b][/color]
[color=blue]#######################################################################[/color]
[b][color=#00FF00]
Complete name : The Collector 2009 BRRIP XVID AC3 - SCRON.avi 
Format : AVI 
Format/Info : Audio Video Interleave 
Format profile : OpenDML 
Format settings : rec 
File size : 1.36 GiB 
Duration : 1h 29mn 


[/color][/b]
[color=blue]#######################################################################[/color]
[color=#FFFF00][b]Video:[/b][/color]
[color=blue]#######################################################################[/color]
[b][color=#00FF00]
ID : 0 
Format : MPEG-4 Visual 
Format profile : Advanced Simple@L5 
Format settings, BVOP : 4 
Format settings, QPel : No 
Format settings, GMC : No warppoints 
Format settings, Matrix : Default (H.263) 
Codec ID : XVID 
Codec ID/Hint : XviD 
Duration : 1h 29mn 
Bit rate : 1 717 Kbps 
Width : 1 280 pixels 
Height : 544 pixels 
Display aspect ratio : 2.35:1 
Frame rate : 23.976 fps 
Color space : YUV 
Chroma subsampling : 4:2:0 
Bit depth : 8 bits 
Scan type : Progressive 
Compression mode : Lossy 
Bits/(Pixel*Frame) : 0.103 
Stream size : 1.08 GiB (79%) 

[/color][/b]

[color=blue]#######################################################################[/color]
[color=#0000FF][b]Audio 1:[/b][/color]
[color=blue]#######################################################################[/color]
[b][color=#00FF00]
ID : 1 
Format : AC-3 
Format/Info : Audio Coding 3 
Mode extension : CM (complete main) 
Codec ID : 2000 
Duration : 1h 29mn 
Bit rate mode : Constant 
Bit rate : 448 Kbps 
Channel(s) : 6 channels 
Channel positions : Front: L C R, Side: L R, LFE 
Sampling rate : 48.0 KHz 
Bit depth : 16 bits 
Compression mode : Lossy 
Stream size : 288 MiB (21%) 
Alignment : Aligned on interleaves 
Interleave, duration : 64 ms (1.53 video frames) 
Interleave, preload duration : 192 ms 
[/color][/b]


[color=blue]#######################################################################[/color]
[color=red][b]Cast:[/b][/color]
[color=blue]#######################################################################[/color]
[color=red]
 Josh Stewart 	  	Arkin 
 Michael Reilly Burke 	Michael Chase 
 Andrea Roth 	  	Victoria Chase 
 Juan Fernndez 	The Collector 
 Karley Scott Collins 	Hannah Chase 
 Daniella Alonso 	Lisa 
 Haley Pullos 	  	Cindy (as Haley Alexis Pullos) 
 William Prael 	  	Larry Wharton 
 Diane Ayala Goldner 	Gena Wharton 
 Alex Feldman 	  	Chad 
 Madeline Zima 	  	Jill Chase 
 Robert Wisdom 	 	Roy 
 Patrick Rizzotti 	Bowling Ball Cleaner 
 Jayme Suzonne Riser 	Bar Dancer 
 Krystal Mayo 	  	Bar Dancer (as Krystal Dawn Mayo)[/color]

[color=#FFFF00]
SOURCE
Video : The Collector 2009 720p BluRay X264-AMIABLE
Audio : The Collector 2009 720p BluRay X264-AMIABLE

IMDB : www.imdb.com/title/tt0844479/ [/color]


[b][size=2][color=#00CC00]SCR0N is looking for silver supplier,cammers,syncers,Audio and anymore stuff.....
If yall got anything to offer...holler us at scron@hushmail.com[/b][/size][/color] 


SCREENS:

[img]http://leetleech.org/images/56875831350378516903.jpg[/img]
[img]http://leetleech.org/images/83333349655431946925.jpg[/img]
[img]http://leetleech.org/images/18814108884623343285.jpg[/img]
[img]http://leetleech.org/images/20408019061427558712.jpg[/img]
[img]http://leetleech.org/images/92722391778432915122.jpg[/img]
[img]http://leetleech.org/images/16133825474120901071.jpg[/img]
[img]http://leetleech.org/images/42138072449361286043.jpg[/img]